# xmcd
#
# Track frame offsets:
#	150
#	7505
#	25952
#	45303
#	63219
#	84747
#	98976
#	115564
#	139163
#	158454
#	191604
#	204356
#	224872
#
# Disc length: 3330 seconds
#
# Revision: 2
# Processed by: cddbd v1.5.1PL2 Copyright (c) Steve Scherf et al.
# Submitted via: EZCDDA 4.3.2
#
DISCID=a10d000d
DTITLE=Bernie Marsden - The Big Boy Blue Sessions - Disc 1
DYEAR=1900
DGENRE=
TTITLE0=Burn Your Bridges
TTITLE1=Working For The CSA
TTITLE2=Man Or Mouse
TTITLE3=Dream On
TTITLE4=Downhome Blues
TTITLE5=Lady Friend
TTITLE6=Memphis
TTITLE7=Funny People
TTITLE8=Loved Another Woman
TTITLE9=Pick It Up
TTITLE10=Do It If You Wanna
TTITLE11=Place In My Heart
TTITLE12=Tone Down
EXTD=
EXTT0=
EXTT1=
EXTT2=
EXTT3=
EXTT4=
EXTT5=
EXTT6=
EXTT7=
EXTT8=
EXTT9=
EXTT10=
EXTT11=
EXTT12=
PLAYORDER=
